<svg width="106" height="106" viewBox="0 0 106 106" fill="none" xmlns="http://www.w3.org/2000/svg">
<g id="Leshiy/LOGO">
<g id="&#208;&#161;&#208;&#187;&#208;&#190;&#208;&#185;_2">
<path id="Vector" d="M96.4649 40.2175C98.6801 40.2175 100.476 37.0221 100.476 33.0803C100.476 29.1386 98.6801 25.9431 96.4649 25.9431C94.2497 25.9431 92.4539 29.1386 92.4539 33.0803C92.4539 37.0221 94.2497 40.2175 96.4649 40.2175Z" fill="#242410"/>
<path id="Vector_2" d="M50.3009 54.963C58.2059 54.963 64.6142 49.7344 64.6142 43.2846C64.6142 36.8348 58.2059 31.6062 50.3009 31.6062C42.3959 31.6062 35.9877 36.8348 35.9877 43.2846C35.9877 49.7344 42.3959 54.963 50.3009 54.963Z" fill="#242410"/>
<path id="Vector_3" d="M97.4873 49.0649C96.9965 48.2313 96.321 47.5455 96.321 47.5455C95.4793 46.6898 94.5518 46.1193 93.8697 45.7623C93.8697 45.7623 91.1592 44.3839 87.5784 44.4649C82.123 44.5882 79.657 49.2533 71.5353 56.1433C61.3369 64.7944 54.3937 66.6273 52.3457 67.1138C48.9498 67.9204 45.1064 68.8332 41.3351 67.5855C35.528 65.6642 34.558 60.163 31.1113 60.2716C28.8441 60.3428 26.5949 62.2511 26.5499 63.9289C26.4763 66.6979 36.5005 66.8886 36.6166 69.0013C36.6804 70.1699 33.8398 70.8508 31.8981 71.8322C21.7701 76.9531 23.2734 96.7545 30.3253 98.6107C32.8158 99.2665 36.7229 97.874 37.2464 96.2515C37.6243 95.0786 36.1553 94.0315 35.3587 93.1844C30.026 87.5108 39.3059 74.2577 41.3359 74.6638C42.7975 74.9558 41.6786 82.5678 41.6508 82.5678C41.6238 82.5678 40.4297 75.925 44.0105 74.4283C45.4696 73.8179 46.1231 74.7319 49.6728 74.546C54.1941 74.3093 56.6233 72.6444 58.1667 73.6026C59.104 74.1847 58.9044 75.2319 59.4246 75.2539C60.1247 75.284 60.191 73.3781 61.9413 71.7151C63.7832 69.965 66.924 69.0221 67.7607 69.5914C68.4493 70.0601 67.5922 71.5623 67.7607 71.5967C67.939 71.6329 68.4796 69.8754 70.2773 68.2934C70.8859 67.7579 71.4698 67.2561 72.0072 67.3499C73.1809 67.5542 73.0124 70.395 73.58 70.4171C74.074 70.4361 73.8998 68.2731 75.9397 66.5243C76.7208 65.8544 77.5411 65.4894 78.9283 64.8729C80.187 64.3135 80.5616 64.2994 80.816 64.4012C81.4507 64.6552 81.701 65.774 81.4613 66.1893C81.4515 66.2059 81.4278 66.2452 81.445 66.2887C81.5456 66.539 82.9368 66.6746 83.4897 66.2887C84.3403 65.6949 82.8698 64.1031 83.6468 63.5755C84.1743 63.2179 84.9816 63.8614 86.1634 63.6933C88.2499 63.3964 88.119 61.0519 90.0959 60.6262C91.3244 60.3618 92.6568 60.9912 95.1293 62.1597C97.2174 63.1467 97.2869 63.5308 97.803 63.4571C100.59 63.0603 99.0781 51.7652 97.4873 49.0649Z" fill="#C8B76B"/>
<path id="Vector_4" d="M12.5515 34.5551C12.4861 34.1803 20.589 34.6459 24.3481 30.8978C25.3836 29.8648 26.5204 28.0828 28.5946 27.9485C29.8689 27.8663 30.9739 28.4398 31.7403 27.9485C32.2498 27.6221 32.3496 26.9909 32.2122 26.5327C31.8622 25.3684 29.8738 24.9856 30.0104 24.6452C30.1863 24.2035 33.4219 25.1071 34.7289 24.0551C35.6425 23.3196 34.7575 22.3179 35.6728 21.6958C36.8734 20.8788 39.1595 22.0872 40.0772 21.3419C40.9458 20.6365 39.5243 19.0446 40.3921 18.5109C41.0259 18.1208 41.9927 18.8428 42.7517 18.5109C44.2231 17.8675 42.2045 14.4507 43.6956 13.6741C44.8774 13.0588 47.1119 14.7028 48.257 14.028C49.2965 13.4152 48.2603 11.5854 49.0438 11.3148C49.6949 11.0897 50.5038 12.3245 52.6614 12.8484C52.7636 12.8729 55.2116 13.4496 55.9641 12.7306C56.7542 11.9761 55.0513 10.3935 55.6492 10.0174C56.0679 9.75428 57.4486 10.1867 58.3229 10.9609C59.9325 12.3865 58.8872 14.1397 60.0528 14.6181C61.2673 15.1162 63.2017 13.5416 63.9852 14.028C64.6968 14.4703 63.4037 15.9603 64.1423 16.505C65.0191 17.1522 67.4188 15.4794 68.5467 16.0333C70.1391 16.816 69.1356 22.0191 64.6142 24.409C63.7677 24.8568 61.7352 25.9309 59.4238 25.5886C55.5674 25.0169 55.6704 21.202 52.8176 20.5162C48.1801 19.4004 44.1061 28.5674 32.3701 32.9025C22.6755 36.4843 12.6243 34.9692 12.5515 34.5551Z" fill="#2D2D16"/>
<path id="Vector_5" d="M83.3319 18.1575C83.0652 17.3637 82.5238 15.5474 83.6468 14.8542C84.2765 14.4653 84.9333 14.7377 85.3766 14.3825C86.6141 13.3912 83.1953 9.92166 83.8038 9.54563C84.162 9.32418 85.8625 10.1965 87.7363 11.6693C91.3596 14.5168 99.2139 20.5437 96.5442 25.2352C95.5955 26.9031 93.2735 28.4821 91.0389 28.4201C86.7352 28.3011 84.67 22.1472 83.3319 18.1575Z" fill="#2C2C16"/>
<path id="Vector_6" d="M74.2982 31.3983C75.0613 30.672 77.8724 30.9487 79.3847 32.2093C81.5071 33.9796 80.1543 36.9296 78.871 37.1614C77.0275 37.4945 72.9879 32.6454 74.2982 31.3983Z" fill="#7F692D"/>
<path id="Vector_7" d="M72.5249 24.4052C71.2596 25.6719 73.2488 28.6311 75.3565 30.3033C76.7788 31.432 77.2524 31.1787 78.0302 31.9546C80.8904 34.8089 75.332 39.0845 77.5583 41.8639C79.7184 44.5612 88.2327 44.6311 89.8268 42.5718C90.1548 42.1479 90.0215 41.8523 89.8268 40.2126C89.26 35.4334 90.091 35.4045 89.3549 34.0783C88.0773 31.7761 85.8028 32.2791 83.8496 29.4776C82.5778 27.6533 83.3073 27.1031 82.1197 25.9388C79.7552 23.6206 73.9693 22.9588 72.5249 24.4052Z" fill="#837D54"/>
<path id="Vector_8" d="M55.3703 50.7164C58.17 50.7164 60.4396 48.3661 60.4396 45.4667C60.4396 42.5674 58.17 40.217 55.3703 40.217C52.5705 40.217 50.3009 42.5674 50.3009 45.4667C50.3009 48.3661 52.5705 50.7164 55.3703 50.7164Z" fill="#636432"/>
<path id="Vector_9" d="M98.413 35.9105C98.8592 33.6805 98.3485 31.7746 97.2724 31.6535C96.1963 31.5324 94.9623 33.2419 94.5161 35.4719C94.0699 37.7018 94.5806 39.6077 95.6567 39.7288C96.7328 39.8499 97.9668 38.1404 98.413 35.9105Z" fill="#5D5C37"/>
<path id="Vector_10" d="M55.3703 48.6516C56.8835 48.6516 58.1102 47.2256 58.1102 45.4666C58.1102 43.7077 56.8835 42.2817 55.3703 42.2817C53.857 42.2817 52.6303 43.7077 52.6303 45.4666C52.6303 47.2256 53.857 48.6516 55.3703 48.6516Z" fill="#211E0E"/>
<path id="Vector_11" d="M98.0067 35.8347C98.212 34.8102 97.7981 33.914 97.0824 33.8337C96.3668 33.7533 95.6208 34.5183 95.4155 35.5433C95.2103 36.5677 95.6241 37.4639 96.3398 37.5443C97.0554 37.6246 97.8014 36.8591 98.0067 35.8347Z" fill="#242410"/>
<path id="Vector_12" d="M64.6142 60.6256L65.8443 63.5075L68.1737 58.8455L64.6142 60.6256Z" fill="#E1E1D6"/>
</g>
</g>
</svg>
